<svg width="64" height="64" viewBox="0 0 64 64" fill="none" xmlns="http://www.w3.org/2000/svg">
<path fill-rule="evenodd" clip-rule="evenodd" d="M3.98723 24.5828C3.442 24.5828 3 24.1324 3 23.5767V12.0061C3 11.9714 3.00173 11.9371 3.0051 11.9033C3.05565 11.3959 3.47608 11 3.98723 11H15.3404C15.8857 11 16.3277 11.4505 16.3277 12.0061V13.0123H47.6723V12.0061C47.6723 11.4505 48.1143 11 48.6596 11H60.0128C60.558 11 61 11.4505 61 12.0061V23.5767C61 24.1324 60.558 24.5828 60.0128 24.5828H59.2723V38.4172H60.0128C60.558 38.4172 61 38.8676 61 39.4233V50.9939C61 51.5495 60.558 52 60.0128 52H48.6596C48.1143 52 47.6723 51.5495 47.6723 50.9939V50.4908H16.3277V50.9939C16.3277 51.5495 15.8857 52 15.3404 52H3.98723C3.95316 52 3.91948 51.9982 3.8863 51.9948C3.38848 51.9433 3 51.5148 3 50.9939V39.4233C3 38.8676 3.442 38.4172 3.98723 38.4172H4.72766V24.5828H3.98723ZM55.2589 46.1489H48.6596C48.1143 46.1489 47.6723 46.5994 47.6723 47.1551V48.4785H16.3277V47.1551C16.3277 46.5994 15.8857 46.1489 15.3404 46.1489H8.74115V39.4233C8.74115 38.8676 8.29915 38.4172 7.75391 38.4172H6.70213V24.5828H7.75391C8.29915 24.5828 8.74115 24.1324 8.74115 23.5767V16.8511H15.3404C15.8857 16.8511 16.3277 16.4006 16.3277 15.8449V15.0245H47.6723V15.8449C47.6723 16.4006 48.1143 16.8511 48.6596 16.8511H55.2589V23.5767C55.2589 24.1324 55.7009 24.5828 56.2461 24.5828H57.2979V38.4172H56.2461C55.7009 38.4172 55.2589 38.8676 55.2589 39.4233V46.1489Z" fill="url(#paint0_linear_112_116)"/>
<defs>
<linearGradient id="paint0_linear_112_116" x1="32" y1="11" x2="31.8018" y2="51.8503" gradientUnits="userSpaceOnUse">
<stop stop-color="#C8AFE9"/>
<stop offset="1" stop-color="#652FAD"/>
<stop offset="1" stop-color="#65AFAD" stop-opacity="0"/>
</linearGradient>
</defs>
</svg>
