<svg width="64" height="64" viewBox="0 0 64 64" fill="none" xmlns="http://www.w3.org/2000/svg">
<path d="M32 4C16.544 4 4 16.544 4 32C4 47.456 16.544 60 32 60C47.456 60 60 47.456 60 32C60 16.544 47.456 4 32 4ZM32 54.4C19.652 54.4 9.6 44.348 9.6 32C9.6 19.652 19.652 9.6 32 9.6C44.348 9.6 54.4 19.652 54.4 32C54.4 44.348 44.348 54.4 32 54.4ZM42.864 21.612L26.4 38.076L21.136 32.812C20.044 31.72 18.28 31.72 17.188 32.812C16.096 33.904 16.096 35.668 17.188 36.76L24.44 44.012C25.532 45.104 27.296 45.104 28.388 44.012L46.84 25.56C47.932 24.468 47.932 22.704 46.84 21.612C45.748 20.52 43.956 20.52 42.864 21.612Z" fill="url(#paint0_linear_121_206)"/>
<defs>
<linearGradient id="paint0_linear_121_206" x1="4" y1="4" x2="64.3501" y2="9.16431" gradientUnits="userSpaceOnUse">
<stop stop-color="#170A29"/>
<stop offset="1" stop-color="#090410"/>
</linearGradient>
</defs>
</svg>
