<svg width="295" height="43" viewBox="0 0 295 43" fill="none" xmlns="http://www.w3.org/2000/svg">
<path d="M18.1229 3.15256C20.5127 -1.05086 26.4873 -1.05085 28.8771 3.15256L46.1465 33.5273C48.972 38.497 44.3224 44.4043 38.9262 42.7007L25.3432 38.4127C24.1427 38.0337 22.8572 38.0337 21.6568 38.4127L8.07381 42.7007C2.67758 44.4043 -1.97204 38.497 0.853451 33.5273L18.1229 3.15256Z" fill="url(#paint0_linear_41_195)"/>
<path d="M20.8114 5.51698C22.0063 3.41528 24.9936 3.41528 26.1885 5.51699L30.6933 13.4403C32.0967 15.9087 29.8101 18.8509 27.1197 18.0383L24.385 17.2123C23.8075 17.0379 23.1925 17.0379 22.615 17.2123L19.8803 18.0383C17.1899 18.8509 14.9033 15.9087 16.3067 13.4403L20.8114 5.51698Z" fill="white"/>
<path d="M69.16 38.432C66.888 38.432 64.824 37.888 62.968 36.8C61.112 35.68 59.64 34.176 58.552 32.288C57.464 30.4 56.92 28.288 56.92 25.952C56.92 23.616 57.464 21.52 58.552 19.664C59.64 17.776 61.112 16.272 62.968 15.152C64.824 14.032 66.888 13.472 69.16 13.472C70.92 13.472 72.616 13.808 74.248 14.48C75.88 15.12 77.32 16.048 78.568 17.264L76.312 19.856C75.352 18.832 74.248 18.064 73 17.552C71.784 17.008 70.52 16.736 69.208 16.736C67.576 16.736 66.088 17.152 64.744 17.984C63.432 18.784 62.376 19.888 61.576 21.296C60.808 22.672 60.424 24.224 60.424 25.952C60.424 27.68 60.808 29.248 61.576 30.656C62.376 32.064 63.448 33.184 64.792 34.016C66.136 34.816 67.624 35.216 69.256 35.216C70.568 35.216 71.8 34.96 72.952 34.448C74.136 33.936 75.24 33.184 76.264 32.192L78.472 34.592C77.192 35.808 75.752 36.752 74.152 37.424C72.552 38.096 70.888 38.432 69.16 38.432Z" fill="#200F37"/>
<path d="M82.6334 38V4.40002L86.1854 3.58402V16.784C88.0734 14.576 90.6014 13.472 93.7694 13.472C95.5934 13.472 97.1934 13.872 98.5694 14.672C99.9774 15.44 101.065 16.528 101.833 17.936C102.633 19.312 103.033 20.928 103.033 22.784V38H99.5294V23.504C99.5294 21.36 98.9214 19.68 97.7054 18.464C96.5214 17.216 94.8894 16.592 92.8094 16.592C91.3694 16.592 90.0894 16.912 88.9694 17.552C87.8494 18.192 86.9214 19.104 86.1854 20.288V38H82.6334Z" fill="#200F37"/>
<path d="M120.161 38.48C117.889 38.48 115.809 37.936 113.921 36.848C112.065 35.728 110.593 34.224 109.505 32.336C108.417 30.448 107.873 28.336 107.873 26C107.873 23.664 108.417 21.552 109.505 19.664C110.593 17.776 112.065 16.288 113.921 15.2C115.809 14.08 117.889 13.52 120.161 13.52C122.465 13.52 124.545 14.08 126.401 15.2C128.257 16.288 129.729 17.776 130.817 19.664C131.905 21.552 132.449 23.664 132.449 26C132.449 28.336 131.905 30.448 130.817 32.336C129.729 34.224 128.257 35.728 126.401 36.848C124.545 37.936 122.465 38.48 120.161 38.48ZM120.161 35.312C121.793 35.312 123.265 34.896 124.577 34.064C125.921 33.232 126.977 32.112 127.745 30.704C128.545 29.296 128.945 27.728 128.945 26C128.945 24.24 128.545 22.672 127.745 21.296C126.977 19.888 125.921 18.768 124.577 17.936C123.265 17.104 121.793 16.688 120.161 16.688C118.529 16.688 117.041 17.104 115.697 17.936C114.385 18.768 113.329 19.888 112.529 21.296C111.761 22.672 111.377 24.24 111.377 26C111.377 27.728 111.761 29.296 112.529 30.704C113.329 32.112 114.385 33.232 115.697 34.064C117.041 34.896 118.529 35.312 120.161 35.312Z" fill="#200F37"/>
<path d="M145.152 38.48C143.072 38.48 141.472 37.984 140.352 36.992C139.232 36 138.672 34.56 138.672 32.672V16.976H133.488V13.952H138.672V7.85602L142.176 6.94402V13.952H149.424V16.976H142.176V31.76C142.176 33.04 142.464 33.968 143.04 34.544C143.616 35.088 144.56 35.36 145.872 35.36C146.544 35.36 147.136 35.312 147.648 35.216C148.192 35.12 148.768 34.96 149.376 34.736V37.856C148.768 38.08 148.08 38.24 147.312 38.336C146.576 38.432 145.856 38.48 145.152 38.48Z" fill="#200F37"/>
<path d="M164.038 38.432C161.734 38.432 159.638 37.888 157.75 36.8C155.894 35.68 154.406 34.176 153.286 32.288C152.198 30.4 151.654 28.288 151.654 25.952C151.654 23.648 152.182 21.568 153.238 19.712C154.294 17.824 155.718 16.336 157.51 15.248C159.302 14.128 161.302 13.568 163.51 13.568C165.654 13.568 167.574 14.128 169.27 15.248C170.998 16.336 172.358 17.824 173.35 19.712C174.374 21.568 174.886 23.648 174.886 25.952V27.056H155.158C155.35 28.624 155.846 30.032 156.646 31.28C157.478 32.528 158.55 33.52 159.862 34.256C161.174 34.96 162.614 35.312 164.182 35.312C165.43 35.312 166.646 35.12 167.83 34.736C169.014 34.352 170.006 33.808 170.806 33.104L173.014 35.456C171.67 36.448 170.262 37.2 168.79 37.712C167.35 38.192 165.766 38.432 164.038 38.432ZM155.254 24.224H171.334C171.142 22.784 170.662 21.504 169.894 20.384C169.158 19.232 168.23 18.336 167.11 17.696C165.99 17.024 164.758 16.688 163.414 16.688C162.038 16.688 160.774 17.008 159.622 17.648C158.47 18.288 157.51 19.184 156.742 20.336C155.974 21.456 155.478 22.752 155.254 24.224Z" fill="#200F37"/>
<path d="M179.852 38V13.952H183.404V16.784C185.292 14.576 187.82 13.472 190.988 13.472C192.812 13.472 194.412 13.872 195.788 14.672C197.196 15.44 198.284 16.528 199.052 17.936C199.852 19.312 200.252 20.928 200.252 22.784V38H196.748V23.504C196.748 21.36 196.14 19.68 194.924 18.464C193.74 17.216 192.108 16.592 190.028 16.592C188.588 16.592 187.308 16.912 186.188 17.552C185.068 18.192 184.14 19.104 183.404 20.288V38H179.852Z" fill="#200F37"/>
<path d="M205.764 38V4.40002L212.34 3.29602V38H205.764Z" fill="#652FAD"/>
<path d="M225.451 38.432C223.659 38.432 222.075 38.112 220.699 37.472C219.323 36.8 218.251 35.888 217.483 34.736C216.715 33.584 216.331 32.256 216.331 30.752C216.331 28.352 217.227 26.496 219.019 25.184C220.843 23.84 223.339 23.168 226.507 23.168C228.683 23.168 230.731 23.504 232.651 24.176V22.352C232.651 20.912 232.203 19.824 231.307 19.088C230.411 18.352 229.099 17.984 227.371 17.984C226.315 17.984 225.179 18.16 223.963 18.512C222.747 18.832 221.339 19.344 219.739 20.048L217.339 15.2C219.323 14.304 221.211 13.632 223.003 13.184C224.827 12.736 226.651 12.512 228.475 12.512C231.835 12.512 234.443 13.328 236.299 14.96C238.187 16.56 239.131 18.832 239.131 21.776V38H232.651V36.224C231.627 36.992 230.523 37.552 229.339 37.904C228.155 38.256 226.859 38.432 225.451 38.432ZM222.571 30.608C222.571 31.568 222.987 32.336 223.819 32.912C224.651 33.456 225.755 33.728 227.131 33.728C228.219 33.728 229.227 33.6 230.155 33.344C231.083 33.056 231.915 32.64 232.651 32.096V28.448C231.851 28.128 231.019 27.888 230.155 27.728C229.291 27.568 228.363 27.488 227.371 27.488C225.867 27.488 224.683 27.776 223.819 28.352C222.987 28.896 222.571 29.648 222.571 30.608Z" fill="#652FAD"/>
<path d="M244.108 38V4.40002L250.684 3.29602V15.008C252.668 13.44 255.004 12.656 257.692 12.656C260.06 12.656 262.204 13.232 264.124 14.384C266.044 15.536 267.564 17.088 268.684 19.04C269.836 20.96 270.412 23.12 270.412 25.52C270.412 27.92 269.836 30.096 268.684 32.048C267.532 33.968 265.98 35.504 264.028 36.656C262.076 37.776 259.9 38.336 257.5 38.336C256.252 38.336 255.036 38.16 253.852 37.808C252.668 37.456 251.58 36.944 250.588 36.272V38H244.108ZM256.636 32.768C258.012 32.768 259.244 32.448 260.332 31.808C261.452 31.168 262.332 30.304 262.972 29.216C263.612 28.128 263.932 26.896 263.932 25.52C263.932 24.144 263.612 22.912 262.972 21.824C262.332 20.704 261.452 19.84 260.332 19.232C259.244 18.592 258.012 18.272 256.636 18.272C255.42 18.272 254.3 18.48 253.276 18.896C252.284 19.28 251.42 19.872 250.684 20.672V30.416C251.388 31.152 252.252 31.728 253.276 32.144C254.332 32.56 255.452 32.768 256.636 32.768Z" fill="#652FAD"/>
<path d="M283.749 38.48C281.445 38.48 279.317 38.192 277.365 37.616C275.413 37.008 273.717 36.144 272.277 35.024L275.541 30.656C276.981 31.616 278.357 32.336 279.669 32.816C281.013 33.296 282.341 33.536 283.653 33.536C285.125 33.536 286.293 33.296 287.157 32.816C288.053 32.304 288.501 31.648 288.501 30.848C288.501 30.208 288.245 29.696 287.733 29.312C287.253 28.928 286.469 28.656 285.381 28.496L280.581 27.776C278.085 27.392 276.197 26.592 274.917 25.376C273.637 24.128 272.997 22.496 272.997 20.48C272.997 18.848 273.413 17.456 274.245 16.304C275.109 15.12 276.309 14.208 277.845 13.568C279.413 12.896 281.269 12.56 283.413 12.56C285.237 12.56 287.013 12.816 288.741 13.328C290.501 13.84 292.149 14.624 293.685 15.68L290.517 19.952C289.141 19.088 287.829 18.464 286.581 18.08C285.333 17.696 284.069 17.504 282.789 17.504C281.605 17.504 280.645 17.728 279.909 18.176C279.205 18.624 278.853 19.216 278.853 19.952C278.853 20.624 279.109 21.152 279.621 21.536C280.133 21.92 281.013 22.192 282.261 22.352L287.013 23.072C289.509 23.424 291.413 24.224 292.725 25.472C294.037 26.688 294.693 28.272 294.693 30.224C294.693 31.824 294.213 33.248 293.253 34.496C292.293 35.712 290.997 36.688 289.365 37.424C287.733 38.128 285.861 38.48 283.749 38.48Z" fill="#652FAD"/>
<defs>
<linearGradient id="paint0_linear_41_195" x1="147.346" y1="1.43197e-08" x2="147.304" y2="42.844" gradientUnits="userSpaceOnUse">
<stop stop-color="#C8AFE9"/>
<stop offset="1" stop-color="#652FAD"/>
<stop offset="1" stop-color="#65AFAD" stop-opacity="0"/>
</linearGradient>
</defs>
</svg>
