<svg width="161" height="24" viewBox="0 0 161 24" fill="none" xmlns="http://www.w3.org/2000/svg">
<path d="M9.85928 1.75957C11.1594 -0.586524 14.4097 -0.586523 15.7098 1.75957L25.1048 18.7129C26.642 21.4867 24.1125 24.7838 21.1768 23.833L13.7873 21.4396C13.1342 21.2281 12.4349 21.2281 11.7818 21.4396L4.39234 23.833C1.45667 24.7838 -1.07284 21.4867 0.464298 18.7129L9.85928 1.75957Z" fill="url(#paint0_linear_1_6)"/>
<path d="M11.3219 3.07925C11.972 1.9062 13.5971 1.9062 14.2472 3.07925L16.6979 7.50154C17.4614 8.87928 16.2174 10.5214 14.7538 10.0679L13.266 9.60688C12.9518 9.50953 12.6173 9.50953 12.3031 9.60688L10.8153 10.0679C9.35172 10.5214 8.10773 8.87928 8.87122 7.50154L11.3219 3.07925Z" fill="white"/>
<path d="M37.6247 21.4504C36.3887 21.4504 35.2658 21.1468 34.2561 20.5395C33.2464 19.9144 32.4456 19.075 31.8537 18.0212C31.2618 16.9675 30.9659 15.7887 30.9659 14.4848C30.9659 13.181 31.2618 12.0112 31.8537 10.9753C32.4456 9.9215 33.2464 9.08206 34.2561 8.45694C35.2658 7.83183 36.3887 7.51927 37.6247 7.51927C38.5822 7.51927 39.5049 7.7068 40.3927 8.08187C41.2806 8.43908 42.0639 8.95704 42.7429 9.63573L41.5156 11.0824C40.9933 10.5109 40.3927 10.0822 39.7138 9.79648C39.0522 9.49285 38.3646 9.34103 37.6508 9.34103C36.763 9.34103 35.9535 9.57322 35.2223 10.0376C34.5085 10.4841 33.934 11.1003 33.4988 11.8862C33.081 12.6542 32.8721 13.5204 32.8721 14.4848C32.8721 15.4493 33.081 16.3245 33.4988 17.1103C33.934 17.8962 34.5172 18.5213 35.2484 18.9857C35.9796 19.4322 36.7891 19.6555 37.6769 19.6555C38.3907 19.6555 39.0609 19.5126 39.6876 19.2268C40.3318 18.941 40.9324 18.5213 41.4895 17.9676L42.6907 19.3072C41.9943 19.9859 41.2109 20.5128 40.3405 20.8878C39.47 21.2629 38.5648 21.4504 37.6247 21.4504Z" fill="white"/>
<path d="M44.9545 21.2093V2.45583L46.8869 2.00038V9.36783C47.914 8.13545 49.2893 7.51927 51.0128 7.51927C52.0051 7.51927 52.8755 7.74252 53.6241 8.18903C54.3901 8.61769 54.982 9.22494 55.3998 10.0108C55.835 10.7788 56.0526 11.6808 56.0526 12.7167V21.2093H54.1464V13.1185C54.1464 11.9219 53.8156 10.9842 53.1541 10.3055C52.51 9.60894 51.6221 9.26066 50.4905 9.26066C49.7071 9.26066 49.0108 9.43927 48.4015 9.79648C47.7922 10.1537 47.2873 10.6627 46.8869 11.3235V21.2093H44.9545Z" fill="white"/>
<path d="M65.3705 21.4772C64.1345 21.4772 63.003 21.1736 61.9758 20.5663C60.9661 19.9412 60.1653 19.1018 59.5734 18.048C58.9815 16.9942 58.6856 15.8155 58.6856 14.5116C58.6856 13.2078 58.9815 12.029 59.5734 10.9753C60.1653 9.9215 60.9661 9.09099 61.9758 8.48373C63.003 7.85862 64.1345 7.54606 65.3705 7.54606C66.624 7.54606 67.7555 7.85862 68.7653 8.48373C69.775 9.09099 70.5758 9.9215 71.1677 10.9753C71.7596 12.029 72.0555 13.2078 72.0555 14.5116C72.0555 15.8155 71.7596 16.9942 71.1677 18.048C70.5758 19.1018 69.775 19.9412 68.7653 20.5663C67.7555 21.1736 66.624 21.4772 65.3705 21.4772ZM65.3705 19.709C66.2584 19.709 67.0592 19.4768 67.773 19.0125C68.5041 18.5481 69.0786 17.923 69.4964 17.1371C69.9316 16.3513 70.1493 15.4761 70.1493 14.5116C70.1493 13.5293 69.9316 12.6542 69.4964 11.8862C69.0786 11.1003 68.5041 10.4752 67.773 10.0108C67.0592 9.54643 66.2584 9.31424 65.3705 9.31424C64.4827 9.31424 63.6732 9.54643 62.942 10.0108C62.2283 10.4752 61.6538 11.1003 61.2186 11.8862C60.8007 12.6542 60.5918 13.5293 60.5918 14.5116C60.5918 15.4761 60.8007 16.3513 61.2186 17.1371C61.6538 17.923 62.2283 18.5481 62.942 19.0125C63.6732 19.4768 64.4827 19.709 65.3705 19.709Z" fill="white"/>
<path d="M78.9661 21.4772C77.8345 21.4772 76.9641 21.2004 76.3548 20.6467C75.7455 20.093 75.4408 19.2893 75.4408 18.2355V9.47499H72.6206V7.78717H75.4408V4.38476L77.3471 3.87573V7.78717H81.2902V9.47499H77.3471V17.7265C77.3471 18.4409 77.5038 18.9589 77.8171 19.2804C78.1305 19.584 78.644 19.7358 79.3578 19.7358C79.7234 19.7358 80.0454 19.709 80.324 19.6555C80.6199 19.6019 80.9333 19.5126 81.2641 19.3875V21.1289C80.9333 21.254 80.559 21.3433 80.1412 21.3968C79.7408 21.4504 79.3491 21.4772 78.9661 21.4772Z" fill="white"/>
<path d="M89.2408 21.4504C87.9874 21.4504 86.8471 21.1468 85.82 20.5395C84.8103 19.9144 84.0008 19.075 83.3915 18.0212C82.7996 16.9675 82.5036 15.7887 82.5036 14.4848C82.5036 13.1989 82.7909 12.038 83.3654 11.0021C83.9398 9.94829 84.7145 9.11778 85.6894 8.51052C86.6643 7.88541 87.7524 7.57285 88.9536 7.57285C90.12 7.57285 91.1645 7.88541 92.0872 8.51052C93.0272 9.11778 93.7671 9.94829 94.3068 11.0021C94.8639 12.038 95.1424 13.1989 95.1424 14.4848V15.101H84.4099C84.5143 15.9762 84.7842 16.7621 85.2194 17.4586C85.672 18.1552 86.2552 18.7089 86.969 19.1196C87.6827 19.5126 88.4661 19.709 89.3192 19.709C89.9981 19.709 90.6596 19.6019 91.3038 19.3875C91.9479 19.1732 92.4876 18.8696 92.9228 18.4767L94.124 19.7894C93.3928 20.3431 92.6268 20.7628 91.826 21.0486C91.0426 21.3165 90.1809 21.4504 89.2408 21.4504ZM84.4621 13.5204H93.21C93.1056 12.7167 92.8444 12.0022 92.4266 11.3771C92.0262 10.7342 91.5214 10.2341 90.9121 9.87685C90.3028 9.50178 89.6325 9.31424 88.9014 9.31424C88.1528 9.31424 87.4651 9.49285 86.8384 9.85006C86.2117 10.2073 85.6894 10.7074 85.2716 11.3503C84.8538 11.9755 84.584 12.6988 84.4621 13.5204Z" fill="white"/>
<path d="M97.8439 21.2093V7.78717H99.7763V9.36783C100.803 8.13545 102.179 7.51927 103.902 7.51927C104.894 7.51927 105.765 7.74252 106.513 8.18903C107.279 8.61769 107.871 9.22494 108.289 10.0108C108.724 10.7788 108.942 11.6808 108.942 12.7167V21.2093H107.036V13.1185C107.036 11.9219 106.705 10.9842 106.043 10.3055C105.399 9.60894 104.511 9.26066 103.38 9.26066C102.596 9.26066 101.9 9.43927 101.291 9.79648C100.682 10.1537 100.177 10.6627 99.7763 11.3235V21.2093H97.8439Z" fill="white"/>
<path d="M111.94 21.2093V2.45583L115.518 1.83964V21.2093H111.94Z" fill="#C8AFE9"/>
<path d="M122.651 21.4504C121.676 21.4504 120.814 21.2718 120.065 20.9146C119.317 20.5395 118.734 20.0305 118.316 19.3875C117.898 18.7446 117.689 18.0034 117.689 17.1639C117.689 15.8244 118.176 14.7885 119.151 14.0562C120.144 13.3061 121.502 12.931 123.225 12.931C124.409 12.931 125.523 13.1185 126.568 13.4936V12.4755C126.568 11.6718 126.324 11.0646 125.836 10.6538C125.349 10.243 124.635 10.0376 123.695 10.0376C123.121 10.0376 122.503 10.1358 121.841 10.3323C121.18 10.5109 120.414 10.7967 119.543 11.1896L118.237 8.48373C119.317 7.98364 120.344 7.60857 121.319 7.35852C122.311 7.10848 123.303 6.98345 124.296 6.98345C126.124 6.98345 127.542 7.4389 128.552 8.34978C129.579 9.2428 130.093 10.5109 130.093 12.1541V21.2093H126.568V20.2181C126.01 20.6467 125.41 20.9593 124.766 21.1557C124.122 21.3522 123.417 21.4504 122.651 21.4504ZM121.084 17.0835C121.084 17.6194 121.31 18.048 121.763 18.3695C122.215 18.6731 122.816 18.8249 123.565 18.8249C124.156 18.8249 124.705 18.7535 125.21 18.6106C125.714 18.4499 126.167 18.2177 126.568 17.9141V15.878C126.132 15.6994 125.68 15.5654 125.21 15.4761C124.74 15.3868 124.235 15.3422 123.695 15.3422C122.877 15.3422 122.233 15.5029 121.763 15.8244C121.31 16.128 121.084 16.5477 121.084 17.0835Z" fill="#C8AFE9"/>
<path d="M132.8 21.2093V2.45583L136.378 1.83964V8.37657C137.457 7.50141 138.728 7.06383 140.19 7.06383C141.479 7.06383 142.645 7.38531 143.69 8.02829C144.734 8.67127 145.561 9.5375 146.17 10.627C146.797 11.6986 147.11 12.9042 147.11 14.2437C147.11 15.5833 146.797 16.7978 146.17 17.8873C145.544 18.9589 144.699 19.8162 143.637 20.4592C142.575 21.0843 141.392 21.3968 140.086 21.3968C139.407 21.3968 138.745 21.2986 138.101 21.1021C137.457 20.9057 136.865 20.6199 136.326 20.2448V21.2093H132.8ZM139.616 18.2891C140.365 18.2891 141.035 18.1105 141.627 17.7533C142.236 17.3961 142.715 16.9139 143.063 16.3066C143.411 15.6994 143.585 15.0117 143.585 14.2437C143.585 13.4757 143.411 12.7881 143.063 12.1808C142.715 11.5557 142.236 11.0735 141.627 10.7342C141.035 10.3769 140.365 10.1983 139.616 10.1983C138.954 10.1983 138.345 10.3144 137.788 10.5466C137.248 10.7609 136.778 11.0914 136.378 11.5379V16.9764C136.761 17.3872 137.231 17.7087 137.788 17.9408C138.363 18.173 138.972 18.2891 139.616 18.2891Z" fill="#C8AFE9"/>
<path d="M154.366 21.4772C153.113 21.4772 151.955 21.3165 150.893 20.995C149.831 20.6556 148.909 20.1734 148.125 19.5483L149.901 17.1103C150.684 17.6462 151.433 18.048 152.147 18.3159C152.878 18.5838 153.6 18.7178 154.314 18.7178C155.115 18.7178 155.75 18.5838 156.22 18.3159C156.708 18.0302 156.951 17.664 156.951 17.2175C156.951 16.8603 156.812 16.5745 156.534 16.3602C156.272 16.1459 155.846 15.9941 155.254 15.9048L152.643 15.5029C151.285 15.2886 150.258 14.8421 149.561 14.1634C148.865 13.4668 148.517 12.5559 148.517 11.4307C148.517 10.5198 148.743 9.7429 149.196 9.09992C149.666 8.43908 150.319 7.93006 151.154 7.57285C152.007 7.19778 153.017 7.01024 154.183 7.01024C155.176 7.01024 156.142 7.15313 157.082 7.4389C158.039 7.72466 158.936 8.16224 159.772 8.75164L158.048 11.136C157.3 10.6538 156.586 10.3055 155.907 10.0912C155.228 9.87685 154.54 9.76969 153.844 9.76969C153.2 9.76969 152.678 9.89471 152.277 10.1448C151.894 10.3948 151.703 10.7252 151.703 11.136C151.703 11.5111 151.842 11.8058 152.12 12.0201C152.399 12.2344 152.878 12.3862 153.557 12.4755L156.142 12.8774C157.5 13.0739 158.536 13.5204 159.249 14.2169C159.963 14.8956 160.32 15.7797 160.32 16.8692C160.32 17.7622 160.059 18.557 159.537 19.2536C159.014 19.9323 158.309 20.477 157.421 20.8878C156.534 21.2808 155.515 21.4772 154.366 21.4772Z" fill="#C8AFE9"/>
<defs>
<linearGradient id="paint0_linear_1_6" x1="80.16" y1="7.99237e-09" x2="80.1354" y2="23.9129" gradientUnits="userSpaceOnUse">
<stop stop-color="#C8AFE9"/>
<stop offset="1" stop-color="#652FAD"/>
<stop offset="1" stop-color="#65AFAD" stop-opacity="0"/>
</linearGradient>
</defs>
</svg>
