<svg width="64" height="64" viewBox="0 0 64 64" fill="none" xmlns="http://www.w3.org/2000/svg">
<path d="M40.5324 20.2063L40.5318 20.2043C40.0761 18.6692 39.2035 17.366 37.7891 16.4645C36.3944 15.5755 34.5616 15.1333 32.2727 15.1333C29.5527 15.1333 27.2664 15.7546 25.6308 16.9266C23.9675 18.1184 23.0255 19.8525 23.0255 21.8889C23.0255 23.6942 23.7414 25.198 25.4052 26.4519C26.992 27.6478 29.4416 28.6202 32.9332 29.5445C36.3812 30.4573 39.8041 31.6309 42.3588 33.5907C44.8577 35.5076 46.5455 38.188 46.5455 42.2667C46.5455 45.18 45.4755 47.3904 43.7472 49.0217C41.996 50.6746 39.5173 51.778 36.6648 52.3293L35.8545 52.4859V53.3111V55.3333C35.8545 57.3806 34.2385 59 32.2727 59C30.307 59 28.6909 57.3806 28.6909 55.3333V53.2489V52.4428L27.9032 52.2717C23.5261 51.3206 19.8126 48.9239 18.2343 45.0073C17.7295 43.7275 18.6928 42.3333 20.024 42.3333H20.8793C21.626 42.3333 22.3472 42.8557 22.6928 43.7711L22.6954 43.7776C23.281 45.2961 24.3364 46.5926 25.9506 47.4951C27.5475 48.3879 29.6386 48.8667 32.2727 48.8667C35.8099 48.8667 38.1466 47.9687 39.606 46.6222C41.0669 45.2741 41.52 43.5944 41.52 42.2978C41.52 40.6412 41.068 38.9491 39.4934 37.4416C37.9714 35.9844 35.4809 34.7788 31.594 33.8286C27.3867 32.7996 23.9671 31.4281 21.6135 29.5132C19.3063 27.6361 18 25.2226 18 21.9511C18 16.6032 22.2267 12.9489 27.9062 11.6965L28.6909 11.5235V10.72V8.66667C28.6909 6.61935 30.307 5 32.2727 5C34.2385 5 35.8545 6.61935 35.8545 8.66667V10.8133V11.5956L36.6137 11.7839C41.0523 12.8851 43.7807 15.6937 44.952 19.0455L44.9519 19.0455L44.9564 19.0578C45.4211 20.3336 44.4695 21.6667 43.1469 21.6667H42.2305C41.4894 21.6667 40.8037 21.1278 40.5324 20.2063Z" fill="url(#paint0_linear_118_195)" stroke="#090410" stroke-width="2"/>
<defs>
<linearGradient id="paint0_linear_118_195" x1="32.2727" y1="4" x2="31.5708" y2="59.788" gradientUnits="userSpaceOnUse">
<stop stop-color="#C8AFE9"/>
<stop offset="1" stop-color="#652FAD"/>
<stop offset="1" stop-color="#65AFAD" stop-opacity="0"/>
</linearGradient>
</defs>
</svg>
