<svg width="40" height="39" viewBox="0 0 40 39" fill="none" xmlns="http://www.w3.org/2000/svg">
<path d="M7.8481 4.91748C4.73529 4.91748 2.17721 7.47556 2.17721 10.5884V29.2213C2.17721 31.8865 4.37271 34.082 7.03797 34.082H13.519V22.2118L20 27.2751L26.481 22.2118V34.082H32.962C35.6273 34.082 37.8228 31.8865 37.8228 29.2213V10.5884C37.8228 7.47556 35.2647 4.91748 32.1519 4.91748C30.9369 4.91748 29.6932 5.31 28.6582 6.12001L20 12.8763L11.3418 6.12001H11.3386C10.3041 5.31133 9.06211 4.91748 7.8481 4.91748ZM7.8481 8.15799C8.38298 8.15799 8.88931 8.31724 9.34493 8.67381L10.2785 9.40166V15.5694L5.41772 11.7751V10.5884C5.41772 9.22604 6.48577 8.15799 7.8481 8.15799ZM32.1519 8.15799C33.5142 8.15799 34.5823 9.22604 34.5823 10.5884V11.7751L29.7215 15.5694V9.40166L30.6551 8.67381C31.1107 8.31724 31.617 8.15799 32.1519 8.15799ZM13.519 11.9301L20 16.9871L26.481 11.9301V18.101L20 23.1643L13.519 18.101V11.9301ZM5.41772 15.8858L10.2785 19.6801V30.8415H7.03797C6.12248 30.8415 5.41772 30.1368 5.41772 29.2213V15.8858ZM34.5823 15.8858V29.2213C34.5823 30.1368 33.8775 30.8415 32.962 30.8415H29.7215V19.6801L34.5823 15.8858Z" fill="#090410"/>
</svg>
