<svg width="40" height="40" viewBox="0 0 40 40" fill="none" xmlns="http://www.w3.org/2000/svg">
<path d="M13.519 5.41797C9.05195 5.41797 5.41772 9.0522 5.41772 13.5192V26.4813C5.41772 30.9483 9.05195 34.5825 13.519 34.5825H26.481C30.948 34.5825 34.5823 30.9483 34.5823 26.4813V13.5192C34.5823 9.0522 30.948 5.41797 26.481 5.41797H13.519ZM13.519 8.65847H26.481C29.1609 8.65847 31.3418 10.8393 31.3418 13.5192V26.4813C31.3418 29.1612 29.1609 31.342 26.481 31.342H13.519C10.8391 31.342 8.65823 29.1612 8.65823 26.4813V13.5192C8.65823 10.8393 10.8391 8.65847 13.519 8.65847ZM28.1013 10.2787C27.6715 10.2787 27.2594 10.4494 26.9556 10.7533C26.6517 11.0571 26.481 11.4693 26.481 11.899C26.481 12.3287 26.6517 12.7408 26.9556 13.0447C27.2594 13.3485 27.6715 13.5192 28.1013 13.5192C28.531 13.5192 28.9431 13.3485 29.247 13.0447C29.5508 12.7408 29.7215 12.3287 29.7215 11.899C29.7215 11.4693 29.5508 11.0571 29.247 10.7533C28.9431 10.4494 28.531 10.2787 28.1013 10.2787ZM20 11.899C15.533 11.899 11.8987 15.5332 11.8987 20.0002C11.8987 24.4673 15.533 28.1015 20 28.1015C24.467 28.1015 28.1013 24.4673 28.1013 20.0002C28.1013 15.5332 24.467 11.899 20 11.899ZM20 15.1395C22.6799 15.1395 24.8608 17.3203 24.8608 20.0002C24.8608 22.6801 22.6799 24.861 20 24.861C17.3201 24.861 15.1392 22.6801 15.1392 20.0002C15.1392 17.3203 17.3201 15.1395 20 15.1395Z" fill="#090410"/>
</svg>
