<svg width="1440" height="1024" viewBox="0 0 1440 1024" fill="none" xmlns="http://www.w3.org/2000/svg">
<mask id="mask0_102_48" style="mask-type:alpha" maskUnits="userSpaceOnUse" x="0" y="0" width="1440" height="1024">
<rect width="1440" height="1024" fill="#D9D9D9"/>
</mask>
<g mask="url(#mask0_102_48)">
<path d="M1090.78 251.811C1109.55 217.598 1156.45 217.598 1175.22 251.811L1245.95 380.795C1267.99 420.979 1232.08 468.874 1189.84 455.647L1146.9 442.201C1137.83 439.361 1128.17 439.361 1119.1 442.201L1076.16 455.647C1033.92 468.874 998.013 420.979 1020.05 380.795L1090.78 251.811Z" fill="#22103A"/>
<path d="M1489.04 707.553L1217.87 213.08C1180.16 144.307 1085.84 144.307 1048.13 213.08L776.963 707.552C754.676 748.192 761.872 792.67 785.278 823.501C808.686 854.333 848.335 871.545 890.931 857.603L1104.21 787.798C1122.96 781.661 1143.04 781.661 1161.79 787.798L1375.07 857.603C1417.67 871.545 1457.31 854.333 1480.72 823.501C1504.13 792.671 1511.32 748.192 1489.04 707.553Z" stroke="#22103A"/>
</g>
</svg>
