<svg width="64" height="64" viewBox="0 0 64 64" fill="none" xmlns="http://www.w3.org/2000/svg">
<mask id="path-1-inside-1_105_72" fill="white">
<path fill-rule="evenodd" clip-rule="evenodd" d="M43.0418 29.5412C47.1035 30.4972 51.6174 29.3416 54.8571 26.1019C58.6664 22.2927 59.5943 16.7218 57.5962 12.1958L48.0725 21.7195L42.4892 16.1361L52.1774 6.44785C47.5483 4.0687 41.6296 4.89872 37.6418 8.88657C34.4025 12.1258 33.2468 16.639 34.2021 20.7002L8.6072 46.2951C6.16602 48.7363 6.16602 52.6943 8.60721 55.1355C11.0484 57.5766 15.0063 57.5767 17.4475 55.1355L43.0418 29.5412ZM55.136 8.60769L55.1924 8.66449L55.0792 8.55127L55.136 8.60769Z"/>
</mask>
<path fill-rule="evenodd" clip-rule="evenodd" d="M43.0418 29.5412C47.1035 30.4972 51.6174 29.3416 54.8571 26.1019C58.6664 22.2927 59.5943 16.7218 57.5962 12.1958L48.0725 21.7195L42.4892 16.1361L52.1774 6.44785C47.5483 4.0687 41.6296 4.89872 37.6418 8.88657C34.4025 12.1258 33.2468 16.639 34.2021 20.7002L8.6072 46.2951C6.16602 48.7363 6.16602 52.6943 8.60721 55.1355C11.0484 57.5766 15.0063 57.5767 17.4475 55.1355L43.0418 29.5412ZM55.136 8.60769L55.1924 8.66449L55.0792 8.55127L55.136 8.60769Z" fill="url(#paint0_linear_105_72)"/>
<path d="M43.0418 29.5412L43.2709 28.5678L42.7286 28.4402L42.3347 28.8341L43.0418 29.5412ZM57.5962 12.1958L58.511 11.7919L57.9214 10.4564L56.8891 11.4887L57.5962 12.1958ZM48.0725 21.7195L47.3654 22.4266L48.0725 23.1337L48.7796 22.4266L48.0725 21.7195ZM42.4892 16.1361L41.782 15.429L41.0749 16.1361L41.782 16.8432L42.4892 16.1361ZM52.1774 6.44785L52.8845 7.15496L53.8542 6.18529L52.6345 5.55844L52.1774 6.44785ZM34.2021 20.7002L34.9092 21.4073L35.3031 21.0135L35.1755 20.4712L34.2021 20.7002ZM17.4475 55.1355L16.7404 54.4284L17.4475 55.1355ZM55.1924 8.66449L54.4853 9.37159L55.9019 7.95973L55.1924 8.66449ZM55.136 8.60769L55.8455 7.90292L55.8408 7.89824L55.136 8.60769ZM55.0792 8.55127L55.784 7.84182L54.3721 9.25838L55.0792 8.55127ZM42.8127 30.5146C47.2073 31.549 52.0766 30.2967 55.5642 26.8091L54.15 25.3948C51.1583 28.3866 46.9997 29.4455 43.2709 28.5678L42.8127 30.5146ZM55.5642 26.8091C59.664 22.7093 60.6767 16.6975 58.511 11.7919L56.6814 12.5996C58.5119 16.7461 57.6688 21.8761 54.15 25.3948L55.5642 26.8091ZM56.8891 11.4887L47.3654 21.0124L48.7796 22.4266L58.3033 12.9029L56.8891 11.4887ZM48.7796 21.0124L43.1963 15.429L41.782 16.8432L47.3654 22.4266L48.7796 21.0124ZM43.1963 16.8432L52.8845 7.15496L51.4703 5.74074L41.782 15.429L43.1963 16.8432ZM52.6345 5.55844C47.6143 2.9783 41.2261 3.88803 36.9346 8.17946L38.3489 9.59367C42.0331 5.9094 47.4822 5.1591 51.7203 7.33726L52.6345 5.55844ZM36.9346 8.17946C33.4475 11.6666 32.1951 16.5351 33.2287 20.9292L35.1755 20.4712C34.2985 16.7429 35.3575 12.585 38.3489 9.59367L36.9346 8.17946ZM9.31431 47.0022L34.9092 21.4073L33.495 19.9931L7.9001 45.588L9.31431 47.0022ZM9.31431 54.4283C7.26365 52.3777 7.26365 49.0529 9.31431 47.0022L7.9001 45.588C5.06839 48.4197 5.06838 53.0108 7.9001 55.8426L9.31431 54.4283ZM16.7404 54.4284C14.6898 56.479 11.365 56.479 9.31431 54.4283L7.9001 55.8426C10.7318 58.6743 15.3229 58.6743 18.1546 55.8426L16.7404 54.4284ZM42.3347 28.8341L16.7404 54.4284L18.1546 55.8426L43.7489 30.2483L42.3347 28.8341ZM55.9019 7.95973L55.8455 7.90294L54.4266 9.31244L54.483 9.36924L55.9019 7.95973ZM54.3721 9.25838L54.4853 9.37159L55.8995 7.95738L55.7863 7.84416L54.3721 9.25838ZM55.8408 7.89824L55.784 7.84182L54.3745 9.26072L54.4313 9.31714L55.8408 7.89824Z" fill="#090410" mask="url(#path-1-inside-1_105_72)"/>
<mask id="path-3-inside-2_105_72" fill="white">
<path fill-rule="evenodd" clip-rule="evenodd" d="M7.99163 8.32026L10.0943 9.04051C10.4662 8.8624 10.9254 8.92741 11.2335 9.23554L33.0391 31.0411C35.4265 29.6749 38.5229 30.0111 40.5615 32.0497L54.5199 46.0081C56.9611 48.4493 56.9611 52.4072 54.5199 54.8484C52.0787 57.2896 48.1208 57.2896 45.6796 54.8484L31.7212 40.89C29.6825 38.8514 29.3464 35.755 30.7126 33.3675L8.9071 11.5619C8.59906 11.2539 8.534 10.7949 8.71192 10.4231L7.99163 8.32026Z"/>
</mask>
<path fill-rule="evenodd" clip-rule="evenodd" d="M7.99163 8.32026L10.0943 9.04051C10.4662 8.8624 10.9254 8.92741 11.2335 9.23554L33.0391 31.0411C35.4265 29.6749 38.5229 30.0111 40.5615 32.0497L54.5199 46.0081C56.9611 48.4493 56.9611 52.4072 54.5199 54.8484C52.0787 57.2896 48.1208 57.2896 45.6796 54.8484L31.7212 40.89C29.6825 38.8514 29.3464 35.755 30.7126 33.3675L8.9071 11.5619C8.59906 11.2539 8.534 10.7949 8.71192 10.4231L7.99163 8.32026Z" fill="url(#paint1_linear_105_72)"/>
<path d="M10.0943 9.04051L9.77026 9.98655L10.1573 10.1191L10.5263 9.9424L10.0943 9.04051ZM7.99163 8.32026L8.31568 7.37422L6.38387 6.71251L7.04559 8.64432L7.99163 8.32026ZM33.0391 31.0411L32.332 31.7482L32.8724 32.2886L33.5357 31.909L33.0391 31.0411ZM30.7126 33.3675L31.5806 33.8642L31.9602 33.2008L31.4198 32.6604L30.7126 33.3675ZM8.71192 10.4231L9.61396 10.8547L9.79047 10.4859L9.65796 10.099L8.71192 10.4231ZM10.4184 8.09447L8.31568 7.37422L7.66757 9.2663L9.77026 9.98655L10.4184 8.09447ZM11.9406 8.52843C11.3232 7.91106 10.4048 7.78301 9.66234 8.13862L10.5263 9.9424L10.5264 9.94264L11.9406 8.52843ZM33.7462 30.334L11.9406 8.52843L10.5264 9.94264L32.332 31.7482L33.7462 30.334ZM33.5357 31.909C35.5416 30.7612 38.1429 31.0453 39.8544 32.7568L41.2686 31.3426C38.9029 28.9768 35.3114 28.5886 32.5424 30.1732L33.5357 31.909ZM39.8544 32.7568L53.8128 46.7152L55.227 45.301L41.2686 31.3426L39.8544 32.7568ZM53.8128 46.7152C55.8635 48.7659 55.8635 52.0906 53.8128 54.1413L55.227 55.5555C58.0587 52.7238 58.0587 48.1327 55.227 45.301L53.8128 46.7152ZM53.8128 54.1413C51.7622 56.192 48.4374 56.192 46.3867 54.1413L44.9725 55.5555C47.8042 58.3872 52.3953 58.3872 55.227 55.5555L53.8128 54.1413ZM46.3867 54.1413L32.4283 40.1829L31.0141 41.5971L44.9725 55.5555L46.3867 54.1413ZM32.4283 40.1829C30.7168 38.4714 30.4327 35.8701 31.5806 33.8642L29.8447 32.8708C28.2601 35.6399 28.6483 39.2313 31.0141 41.5971L32.4283 40.1829ZM8.19999 12.269L30.0055 34.0746L31.4198 32.6604L9.61421 10.8548L8.19999 12.269ZM7.80987 9.99143C7.45465 10.7338 7.58281 11.6519 8.19999 12.269L9.61421 10.8548L9.61396 10.8547L7.80987 9.99143ZM7.04559 8.64432L7.76588 10.7471L9.65796 10.099L8.93767 7.99621L7.04559 8.64432Z" fill="#090410" mask="url(#path-3-inside-2_105_72)"/>
<defs>
<linearGradient id="paint0_linear_105_72" x1="55.136" y1="8.60769" x2="7.9329" y2="54.0916" gradientUnits="userSpaceOnUse">
<stop stop-color="#C8AFE9"/>
<stop offset="1" stop-color="#652FAD"/>
<stop offset="1" stop-color="#65AFAD" stop-opacity="0"/>
</linearGradient>
<linearGradient id="paint1_linear_105_72" x1="7.9917" y1="8.32019" x2="52.6184" y2="56.2915" gradientUnits="userSpaceOnUse">
<stop stop-color="#C8AFE9"/>
<stop offset="1" stop-color="#652FAD"/>
<stop offset="1" stop-color="#65AFAD" stop-opacity="0"/>
</linearGradient>
</defs>
</svg>
