<svg width="64" height="64" viewBox="0 0 64 64" fill="none" xmlns="http://www.w3.org/2000/svg">
<path d="M2.12981 39.8336C2.65309 45.4505 4.74517 50.8062 8.16639 55.2878L9.86418 53.9883C6.68649 49.8258 4.74354 44.8516 4.2575 39.6348C3.77125 34.4181 4.76165 29.1697 7.11537 24.4903C9.46908 19.8111 13.0907 15.8899 17.566 13.1757C22.0411 10.4615 27.1892 9.06393 32.4205 9.14308C37.6521 9.22213 42.7554 10.7746 47.1469 13.6229C51.5382 16.4711 55.0401 20.4999 57.2517 25.2482C59.4632 29.9965 60.2949 35.2725 59.6518 40.4722C59.0087 45.6718 56.9166 50.5852 53.615 54.6496L55.2727 56C58.8274 51.6237 61.08 46.3337 61.7725 40.7353C62.4649 35.1369 61.5693 29.4562 59.1883 24.3437C56.8071 19.2313 53.0368 14.8935 48.3086 11.8267C43.5804 8.76005 38.0854 7.08849 32.4529 7.00342C26.8202 6.91826 21.2773 8.42297 16.459 11.3453C11.6405 14.2676 7.74098 18.4895 5.207 23.5277C2.67282 28.5659 1.60633 34.2168 2.12981 39.8336Z" fill="url(#paint0_linear_113_167)"/>
<path d="M31.5864 48.9572L41.8147 17.7181L23.2716 44.847L31.5864 48.9572Z" fill="url(#paint1_linear_113_167)"/>
<defs>
<linearGradient id="paint0_linear_113_167" x1="32" y1="7" x2="31.7264" y2="55.8207" gradientUnits="userSpaceOnUse">
<stop stop-color="#C8AFE9"/>
<stop offset="1" stop-color="#652FAD"/>
<stop offset="1" stop-color="#65AFAD" stop-opacity="0"/>
</linearGradient>
<linearGradient id="paint1_linear_113_167" x1="32" y1="7" x2="31.7264" y2="55.8207" gradientUnits="userSpaceOnUse">
<stop stop-color="#C8AFE9"/>
<stop offset="1" stop-color="#652FAD"/>
<stop offset="1" stop-color="#65AFAD" stop-opacity="0"/>
</linearGradient>
</defs>
</svg>
