<svg width="64" height="64" viewBox="0 0 64 64" fill="none" xmlns="http://www.w3.org/2000/svg">
<path d="M16.9855 36.6667H10.2222C7.64489 36.6667 5.55556 38.756 5.55556 41.3333V53.7778C5.55556 56.3551 7.64489 58.4444 10.2222 58.4444H22.6667C25.244 58.4444 27.3333 56.3551 27.3333 53.7778V47.0145H28.8889V53.7778C28.8889 57.2142 26.1031 60 22.6667 60H10.2222C6.78578 60 4 57.2142 4 53.7778V41.3333C4 37.8969 6.78578 35.1111 10.2222 35.1111H16.9855V36.6667Z" fill="url(#paint0_linear_113_161)"/>
<path d="M24.2222 5.55556H52.2222C55.6587 5.55556 58.4444 8.34134 58.4444 11.7778V39.7778C58.4444 43.2142 55.6587 46 52.2222 46H33.5556V47.5556H52.2222C56.5178 47.5556 60 44.0733 60 39.7778V11.7778C60 7.48223 56.5178 4 52.2222 4H24.2222C19.9267 4 16.4444 7.48223 16.4444 11.7778V30.4444H18V11.7778C18 8.34134 20.7858 5.55556 24.2222 5.55556Z" fill="url(#paint1_linear_113_161)"/>
<path d="M38.6959 15.4035L47.814 15.3212C48.5887 15.3142 49.2187 15.9441 49.2018 16.709L49.1195 25.8271C49.1125 26.6019 48.4811 27.2333 47.7063 27.2403C46.9316 27.2473 46.3115 26.6272 46.3185 25.8524L46.3681 20.3547L17.9218 48.8011C17.3143 49.4085 16.3294 49.4085 15.7219 48.8011C15.1144 48.1936 15.1144 47.2087 15.7219 46.6012L44.1611 18.162L38.6706 18.2045C37.8958 18.2115 37.2757 17.5914 37.2827 16.8166C37.2897 16.0419 37.9211 15.4105 38.6959 15.4035Z" fill="url(#paint2_linear_113_161)"/>
<defs>
<linearGradient id="paint0_linear_113_161" x1="32" y1="4" x2="31.6171" y2="59.7942" gradientUnits="userSpaceOnUse">
<stop stop-color="#C8AFE9"/>
<stop offset="1" stop-color="#652FAD"/>
<stop offset="1" stop-color="#65AFAD" stop-opacity="0"/>
</linearGradient>
<linearGradient id="paint1_linear_113_161" x1="32" y1="4" x2="31.6171" y2="59.7942" gradientUnits="userSpaceOnUse">
<stop stop-color="#C8AFE9"/>
<stop offset="1" stop-color="#652FAD"/>
<stop offset="1" stop-color="#65AFAD" stop-opacity="0"/>
</linearGradient>
<linearGradient id="paint2_linear_113_161" x1="32" y1="4" x2="31.6171" y2="59.7942" gradientUnits="userSpaceOnUse">
<stop stop-color="#C8AFE9"/>
<stop offset="1" stop-color="#652FAD"/>
<stop offset="1" stop-color="#65AFAD" stop-opacity="0"/>
</linearGradient>
</defs>
</svg>
