<svg width="48" height="48" viewBox="0 0 48 48" fill="none" xmlns="http://www.w3.org/2000/svg">
<rect width="48" height="48" rx="6" fill="#B34747" fill-opacity="0.25"/>
<g clip-path="url(#clip0_54_149)">
<path d="M35.1733 19.4266L33.5333 21.8933C34.3242 23.4707 34.7114 25.2197 34.6602 26.9836C34.609 28.7474 34.121 30.4711 33.2399 32H14.7599C13.6148 30.0134 13.1403 27.7108 13.4068 25.4334C13.6733 23.156 14.6665 21.0251 16.2393 19.3565C17.812 17.688 19.8806 16.5707 22.1383 16.1702C24.396 15.7698 26.7226 16.1075 28.7733 17.1333L31.2399 15.4933C28.7286 13.8829 25.7497 13.1613 22.7798 13.4439C19.8099 13.7264 17.0205 14.9969 14.8579 17.052C12.6953 19.1071 11.2844 21.8281 10.8509 24.7797C10.4174 27.7314 10.9863 30.7431 12.4666 33.3333C12.6993 33.7363 13.0334 34.0715 13.4357 34.3054C13.838 34.5393 14.2946 34.6638 14.7599 34.6666H33.2266C33.6965 34.6685 34.1585 34.5462 34.566 34.312C34.9734 34.0779 35.3117 33.7402 35.5466 33.3333C36.7751 31.2052 37.3916 28.779 37.3281 26.3226C37.2646 23.8661 36.5235 21.4751 35.1866 19.4133L35.1733 19.4266ZM22.1199 28.5466C22.3676 28.7946 22.6617 28.9913 22.9854 29.1255C23.3092 29.2596 23.6562 29.3287 24.0066 29.3287C24.3571 29.3287 24.7041 29.2596 25.0278 29.1255C25.3515 28.9913 25.6456 28.7946 25.8933 28.5466L33.4399 17.2266L22.1199 24.7733C21.872 25.021 21.6753 25.3151 21.5411 25.6388C21.4069 25.9625 21.3378 26.3095 21.3378 26.66C21.3378 27.0104 21.4069 27.3574 21.5411 27.6811C21.6753 28.0049 21.872 28.299 22.1199 28.5466Z" fill="#AD2F2F"/>
</g>
<defs>
<clipPath id="clip0_54_149">
<rect width="32" height="32" fill="white" transform="translate(8 8)"/>
</clipPath>
</defs>
</svg>
