<svg width="64" height="64" viewBox="0 0 64 64" fill="none" xmlns="http://www.w3.org/2000/svg">
<path d="M11.4282 20.1857H12.1352L11.8996 19.5191C11.7335 19.0491 11.6429 18.5428 11.6429 18.0143C11.6429 15.5211 13.664 13.5 16.1571 13.5C18.6503 13.5 20.6714 15.5211 20.6714 18.0143C20.6714 18.5428 20.5808 19.0491 20.4147 19.5191L20.1791 20.1857H20.8861H27.8571C30.0426 20.1857 31.8143 21.9574 31.8143 24.1429V31.1139V31.8209L32.4809 31.5853C32.9509 31.4192 33.4572 31.3286 33.9857 31.3286C36.4789 31.3286 38.5 33.3497 38.5 35.8429C38.5 38.336 36.4789 40.3571 33.9857 40.3571C33.4572 40.3571 32.9509 40.2665 32.4809 40.1004L31.8143 39.8648V40.5718V47.5429C31.8143 49.7283 30.0426 51.5 27.8571 51.5H21.3949C21.5744 50.9559 21.6714 50.3747 21.6714 49.7714C21.6714 46.726 19.2026 44.2571 16.1571 44.2571C13.1117 44.2571 10.6429 46.726 10.6429 49.7714C10.6429 50.3747 10.7399 50.9559 10.9194 51.5H4.45714C2.27167 51.5 0.5 49.7283 0.5 47.5429V41.0806C1.04408 41.2601 1.62533 41.3571 2.22857 41.3571C5.27403 41.3571 7.74286 38.8883 7.74286 35.8429C7.74286 32.7974 5.27403 30.3286 2.22857 30.3286C1.62533 30.3286 1.04408 30.4256 0.5 30.6051V24.1429C0.5 21.9574 2.27167 20.1857 4.45714 20.1857H11.4282Z" fill="url(#paint0_linear_105_23)" stroke="#090410"/>
<path d="M28.0423 23.0196L28.7177 22.8105L28.2954 22.2434C27.9977 21.8435 27.7614 21.3867 27.605 20.8818C26.8676 18.5002 28.2004 15.9717 30.5821 15.2343C32.9637 14.4968 35.4922 15.8297 36.2296 18.2113C36.386 18.7162 36.4491 19.2266 36.4295 19.7247L36.4016 20.4312L37.077 20.222L43.7361 18.1601C45.8238 17.5136 48.0402 18.682 48.6866 20.7697L50.7486 27.4288L50.9577 28.1042L51.5248 27.6819C51.9247 27.3842 52.3815 27.1479 52.8864 26.9916C55.268 26.2541 57.7965 27.587 58.5339 29.9686C59.2714 32.3502 57.9385 34.8787 55.5569 35.6161C55.0521 35.7725 54.5416 35.8357 54.0435 35.816L53.337 35.7881L53.5462 36.4635L55.6081 43.1226C56.2546 45.2103 55.0862 47.4267 52.9985 48.0732L46.8255 49.9846C46.836 49.4118 46.7567 48.8279 46.5783 48.2516C45.6775 45.3424 42.5889 43.7143 39.6797 44.6151C36.7705 45.5159 35.1424 48.6046 36.0432 51.5137C36.2217 52.09 36.4863 52.6165 36.8187 53.0832L30.6456 54.9946C28.5579 55.6411 26.3415 54.4727 25.695 52.385L23.7836 46.212C24.3564 46.2225 24.9404 46.1433 25.5166 45.9648C28.4258 45.064 30.0539 41.9754 29.1531 39.0662C28.2523 36.157 25.1636 34.5289 22.2545 35.4298C21.6782 35.6082 21.1517 35.8728 20.685 36.2052L18.7736 30.0321C18.1271 27.9444 19.2955 25.728 21.3832 25.0816L28.0423 23.0196Z" fill="url(#paint1_linear_105_23)" stroke="#090410"/>
<defs>
<linearGradient id="paint0_linear_105_23" x1="19.5" y1="13" x2="19.2333" y2="51.8567" gradientUnits="userSpaceOnUse">
<stop stop-color="#C8AFE9"/>
<stop offset="1" stop-color="#652FAD"/>
<stop offset="1" stop-color="#65AFAD" stop-opacity="0"/>
</linearGradient>
<linearGradient id="paint1_linear_105_23" x1="33.6274" y1="13.7679" x2="44.8661" y2="50.9647" gradientUnits="userSpaceOnUse">
<stop stop-color="#C8AFE9"/>
<stop offset="1" stop-color="#652FAD"/>
<stop offset="1" stop-color="#65AFAD" stop-opacity="0"/>
</linearGradient>
</defs>
</svg>
