<svg width="72" height="72" viewBox="0 0 72 72" fill="none" xmlns="http://www.w3.org/2000/svg">
<circle cx="36" cy="36" r="35" fill="#652FAD" fill-opacity="0.25" stroke="#652FAD" stroke-width="2"/>
<path d="M35.1975 47.352C33.4055 47.352 31.7308 47.032 30.1735 46.392C28.6375 45.752 27.3682 44.8667 26.3655 43.736L29.6935 40.664C30.5255 41.56 31.3255 42.1787 32.0935 42.52C32.8828 42.8613 33.8962 43.032 35.1335 43.032C35.9442 43.032 36.6482 42.9253 37.2455 42.712C37.8642 42.4773 38.3335 42.1573 38.6535 41.752C38.9948 41.3253 39.1655 40.8347 39.1655 40.28C39.1655 39.7893 39.0375 39.3733 38.7815 39.032C38.5468 38.6907 38.2055 38.424 37.7575 38.232C37.3308 38.04 36.8188 37.944 36.2215 37.944H33.3415V33.88H35.7095C36.6268 33.88 37.3415 33.6667 37.8535 33.24C38.3655 32.792 38.6215 32.1733 38.6215 31.384C38.6215 30.8507 38.4615 30.3813 38.1415 29.976C37.8428 29.5493 37.4268 29.2187 36.8935 28.984C36.3815 28.7493 35.7842 28.632 35.1015 28.632C34.0135 28.632 33.0855 28.824 32.3175 29.208C31.5708 29.5707 30.7602 30.232 29.8855 31.192L26.5255 28.152C27.5922 26.936 28.8935 25.9867 30.4295 25.304C31.9868 24.6 33.6082 24.248 35.2935 24.248C36.9362 24.248 38.3762 24.5253 39.6135 25.08C40.8508 25.6133 41.8215 26.3707 42.5255 27.352C43.2295 28.312 43.5815 29.432 43.5815 30.712C43.5815 31.928 43.1868 32.9947 42.3975 33.912C41.6082 34.8293 40.5842 35.4693 39.3255 35.832C40.7975 36.1093 41.9708 36.6853 42.8455 37.56C43.7202 38.4133 44.1575 39.4587 44.1575 40.696C44.1575 41.976 43.7735 43.1173 43.0055 44.12C42.2375 45.1227 41.1815 45.912 39.8375 46.488C38.4935 47.064 36.9468 47.352 35.1975 47.352Z" fill="#652FAD"/>
</svg>
