<svg width="64" height="64" viewBox="0 0 64 64" fill="none" xmlns="http://www.w3.org/2000/svg">
<path d="M30.9528 58.9623L30.8813 58.9269L30.8051 58.9033C24.7911 57.0385 19.8231 53.3455 15.8909 47.7758L15.8908 47.7757C11.9592 42.2088 10 36.074 10 29.3451V15.9646C10 14.9953 10.2792 14.1408 10.8442 13.3698L10.845 13.3688C11.42 12.5819 12.1556 12.0167 13.071 11.6605L30.2065 5.29421C30.7704 5.09551 31.3224 5 31.8667 5C32.4109 5 32.9629 5.09551 33.5269 5.29421L50.6623 11.6605C51.578 12.0168 52.3149 12.5823 52.892 13.3698C53.4549 14.1406 53.7333 14.9951 53.7333 15.9646V29.3451C53.7333 36.074 51.7742 42.2088 47.8425 47.7757L47.8425 47.7758C43.9102 53.3455 38.9422 57.0385 32.9282 58.9033L32.8916 58.9146L32.856 58.9287C32.8569 58.9284 32.8565 58.9285 32.8547 58.929C32.8427 58.9323 32.7704 58.9525 32.6026 58.97C32.4226 58.9888 32.1798 59 31.8667 59H31.1521C31.0492 59 30.9896 58.9805 30.9528 58.9623ZM31.5668 55.2195L31.8667 55.3137L32.1666 55.2195C37.3532 53.589 41.6261 50.3268 44.9793 45.4901C48.3353 40.6494 50.0167 35.2587 50.0167 29.3451V15.9646V15.2693L49.3649 15.0272L32.2149 8.65552L31.8667 8.52613L31.5184 8.65552L14.3684 15.0272L13.7167 15.2693V15.9646V29.3451C13.7167 35.2587 15.398 40.6494 18.754 45.4901C22.1072 50.3268 26.3802 53.589 31.5668 55.2195Z" fill="url(#paint0_linear_113_180)" stroke="#090410" stroke-width="2"/>
<defs>
<linearGradient id="paint0_linear_113_180" x1="31.8667" y1="4" x2="31.3978" y2="59.7929" gradientUnits="userSpaceOnUse">
<stop stop-color="#C8AFE9"/>
<stop offset="1" stop-color="#652FAD"/>
<stop offset="1" stop-color="#65AFAD" stop-opacity="0"/>
</linearGradient>
</defs>
</svg>
