<svg width="298" height="51" viewBox="0 0 298 51" fill="none" xmlns="http://www.w3.org/2000/svg">
<path d="M72.16 42.432C69.888 42.432 67.824 41.888 65.968 40.8C64.112 39.68 62.64 38.176 61.552 36.288C60.464 34.4 59.92 32.288 59.92 29.952C59.92 27.616 60.464 25.52 61.552 23.664C62.64 21.776 64.112 20.272 65.968 19.152C67.824 18.032 69.888 17.472 72.16 17.472C73.92 17.472 75.616 17.808 77.248 18.48C78.88 19.12 80.32 20.048 81.568 21.264L79.312 23.856C78.352 22.832 77.248 22.064 76 21.552C74.784 21.008 73.52 20.736 72.208 20.736C70.576 20.736 69.088 21.152 67.744 21.984C66.432 22.784 65.376 23.888 64.576 25.296C63.808 26.672 63.424 28.224 63.424 29.952C63.424 31.68 63.808 33.248 64.576 34.656C65.376 36.064 66.448 37.184 67.792 38.016C69.136 38.816 70.624 39.216 72.256 39.216C73.568 39.216 74.8 38.96 75.952 38.448C77.136 37.936 78.24 37.184 79.264 36.192L81.472 38.592C80.192 39.808 78.752 40.752 77.152 41.424C75.552 42.096 73.888 42.432 72.16 42.432Z" fill="black"/>
<path d="M85.6334 42V8.4L89.1854 7.584V20.784C91.0734 18.576 93.6014 17.472 96.7694 17.472C98.5934 17.472 100.193 17.872 101.569 18.672C102.977 19.44 104.065 20.528 104.833 21.936C105.633 23.312 106.033 24.928 106.033 26.784V42H102.529V27.504C102.529 25.36 101.921 23.68 100.705 22.464C99.5214 21.216 97.8894 20.592 95.8094 20.592C94.3694 20.592 93.0894 20.912 91.9694 21.552C90.8494 22.192 89.9214 23.104 89.1854 24.288V42H85.6334Z" fill="black"/>
<path d="M123.161 42.48C120.889 42.48 118.809 41.936 116.921 40.848C115.065 39.728 113.593 38.224 112.505 36.336C111.417 34.448 110.873 32.336 110.873 30C110.873 27.664 111.417 25.552 112.505 23.664C113.593 21.776 115.065 20.288 116.921 19.2C118.809 18.08 120.889 17.52 123.161 17.52C125.465 17.52 127.545 18.08 129.401 19.2C131.257 20.288 132.729 21.776 133.817 23.664C134.905 25.552 135.449 27.664 135.449 30C135.449 32.336 134.905 34.448 133.817 36.336C132.729 38.224 131.257 39.728 129.401 40.848C127.545 41.936 125.465 42.48 123.161 42.48ZM123.161 39.312C124.793 39.312 126.265 38.896 127.577 38.064C128.921 37.232 129.977 36.112 130.745 34.704C131.545 33.296 131.945 31.728 131.945 30C131.945 28.24 131.545 26.672 130.745 25.296C129.977 23.888 128.921 22.768 127.577 21.936C126.265 21.104 124.793 20.688 123.161 20.688C121.529 20.688 120.041 21.104 118.697 21.936C117.385 22.768 116.329 23.888 115.529 25.296C114.761 26.672 114.377 28.24 114.377 30C114.377 31.728 114.761 33.296 115.529 34.704C116.329 36.112 117.385 37.232 118.697 38.064C120.041 38.896 121.529 39.312 123.161 39.312Z" fill="black"/>
<path d="M148.152 42.48C146.072 42.48 144.472 41.984 143.352 40.992C142.232 40 141.672 38.56 141.672 36.672V20.976H136.488V17.952H141.672V11.856L145.176 10.944V17.952H152.424V20.976H145.176V35.76C145.176 37.04 145.464 37.968 146.04 38.544C146.616 39.088 147.56 39.36 148.872 39.36C149.544 39.36 150.136 39.312 150.648 39.216C151.192 39.12 151.768 38.96 152.376 38.736V41.856C151.768 42.08 151.08 42.24 150.312 42.336C149.576 42.432 148.856 42.48 148.152 42.48Z" fill="black"/>
<path d="M167.038 42.432C164.734 42.432 162.638 41.888 160.75 40.8C158.894 39.68 157.406 38.176 156.286 36.288C155.198 34.4 154.654 32.288 154.654 29.952C154.654 27.648 155.182 25.568 156.238 23.712C157.294 21.824 158.718 20.336 160.51 19.248C162.302 18.128 164.302 17.568 166.51 17.568C168.654 17.568 170.574 18.128 172.27 19.248C173.998 20.336 175.358 21.824 176.35 23.712C177.374 25.568 177.886 27.648 177.886 29.952V31.056H158.158C158.35 32.624 158.846 34.032 159.646 35.28C160.478 36.528 161.55 37.52 162.862 38.256C164.174 38.96 165.614 39.312 167.182 39.312C168.43 39.312 169.646 39.12 170.83 38.736C172.014 38.352 173.006 37.808 173.806 37.104L176.014 39.456C174.67 40.448 173.262 41.2 171.79 41.712C170.35 42.192 168.766 42.432 167.038 42.432ZM158.254 28.224H174.334C174.142 26.784 173.662 25.504 172.894 24.384C172.158 23.232 171.23 22.336 170.11 21.696C168.99 21.024 167.758 20.688 166.414 20.688C165.038 20.688 163.774 21.008 162.622 21.648C161.47 22.288 160.51 23.184 159.742 24.336C158.974 25.456 158.478 26.752 158.254 28.224Z" fill="black"/>
<path d="M182.852 42V17.952H186.404V20.784C188.292 18.576 190.82 17.472 193.988 17.472C195.812 17.472 197.412 17.872 198.788 18.672C200.196 19.44 201.284 20.528 202.052 21.936C202.852 23.312 203.252 24.928 203.252 26.784V42H199.748V27.504C199.748 25.36 199.14 23.68 197.924 22.464C196.74 21.216 195.108 20.592 193.028 20.592C191.588 20.592 190.308 20.912 189.188 21.552C188.068 22.192 187.14 23.104 186.404 24.288V42H182.852Z" fill="black"/>
<path d="M208.764 42V8.4L215.34 7.296V42H208.764Z" fill="#652FAD"/>
<path d="M228.451 42.432C226.659 42.432 225.075 42.112 223.699 41.472C222.323 40.8 221.251 39.888 220.483 38.736C219.715 37.584 219.331 36.256 219.331 34.752C219.331 32.352 220.227 30.496 222.019 29.184C223.843 27.84 226.339 27.168 229.507 27.168C231.683 27.168 233.731 27.504 235.651 28.176V26.352C235.651 24.912 235.203 23.824 234.307 23.088C233.411 22.352 232.099 21.984 230.371 21.984C229.315 21.984 228.179 22.16 226.963 22.512C225.747 22.832 224.339 23.344 222.739 24.048L220.339 19.2C222.323 18.304 224.211 17.632 226.003 17.184C227.827 16.736 229.651 16.512 231.475 16.512C234.835 16.512 237.443 17.328 239.299 18.96C241.187 20.56 242.131 22.832 242.131 25.776V42H235.651V40.224C234.627 40.992 233.523 41.552 232.339 41.904C231.155 42.256 229.859 42.432 228.451 42.432ZM225.571 34.608C225.571 35.568 225.987 36.336 226.819 36.912C227.651 37.456 228.755 37.728 230.131 37.728C231.219 37.728 232.227 37.6 233.155 37.344C234.083 37.056 234.915 36.64 235.651 36.096V32.448C234.851 32.128 234.019 31.888 233.155 31.728C232.291 31.568 231.363 31.488 230.371 31.488C228.867 31.488 227.683 31.776 226.819 32.352C225.987 32.896 225.571 33.648 225.571 34.608Z" fill="#652FAD"/>
<path d="M247.108 42V8.4L253.684 7.296V19.008C255.668 17.44 258.004 16.656 260.692 16.656C263.06 16.656 265.204 17.232 267.124 18.384C269.044 19.536 270.564 21.088 271.684 23.04C272.836 24.96 273.412 27.12 273.412 29.52C273.412 31.92 272.836 34.096 271.684 36.048C270.532 37.968 268.98 39.504 267.028 40.656C265.076 41.776 262.9 42.336 260.5 42.336C259.252 42.336 258.036 42.16 256.852 41.808C255.668 41.456 254.58 40.944 253.588 40.272V42H247.108ZM259.636 36.768C261.012 36.768 262.244 36.448 263.332 35.808C264.452 35.168 265.332 34.304 265.972 33.216C266.612 32.128 266.932 30.896 266.932 29.52C266.932 28.144 266.612 26.912 265.972 25.824C265.332 24.704 264.452 23.84 263.332 23.232C262.244 22.592 261.012 22.272 259.636 22.272C258.42 22.272 257.3 22.48 256.276 22.896C255.284 23.28 254.42 23.872 253.684 24.672V34.416C254.388 35.152 255.252 35.728 256.276 36.144C257.332 36.56 258.452 36.768 259.636 36.768Z" fill="#652FAD"/>
<path d="M286.749 42.48C284.445 42.48 282.317 42.192 280.365 41.616C278.413 41.008 276.717 40.144 275.277 39.024L278.541 34.656C279.981 35.616 281.357 36.336 282.669 36.816C284.013 37.296 285.341 37.536 286.653 37.536C288.125 37.536 289.293 37.296 290.157 36.816C291.053 36.304 291.501 35.648 291.501 34.848C291.501 34.208 291.245 33.696 290.733 33.312C290.253 32.928 289.469 32.656 288.381 32.496L283.581 31.776C281.085 31.392 279.197 30.592 277.917 29.376C276.637 28.128 275.997 26.496 275.997 24.48C275.997 22.848 276.413 21.456 277.245 20.304C278.109 19.12 279.309 18.208 280.845 17.568C282.413 16.896 284.269 16.56 286.413 16.56C288.237 16.56 290.013 16.816 291.741 17.328C293.501 17.84 295.149 18.624 296.685 19.68L293.517 23.952C292.141 23.088 290.829 22.464 289.581 22.08C288.333 21.696 287.069 21.504 285.789 21.504C284.605 21.504 283.645 21.728 282.909 22.176C282.205 22.624 281.853 23.216 281.853 23.952C281.853 24.624 282.109 25.152 282.621 25.536C283.133 25.92 284.013 26.192 285.261 26.352L290.013 27.072C292.509 27.424 294.413 28.224 295.725 29.472C297.037 30.688 297.693 32.272 297.693 34.224C297.693 35.824 297.213 37.248 296.253 38.496C295.293 39.712 293.997 40.688 292.365 41.424C290.733 42.128 288.861 42.48 286.749 42.48Z" fill="#652FAD"/>
<path d="M13.8232 4.11018C17.0129 -1.37005 24.9871 -1.37006 28.1768 4.11017L40.8471 25.8793C44.9591 32.9441 37.3055 40.9949 29.9546 37.3371L24.7158 34.7303C22.3774 33.5668 19.6226 33.5668 17.2843 34.7303L12.0454 37.3371C4.69448 40.9949 -2.95912 32.9441 1.15286 25.8793L13.8232 4.11018Z" fill="url(#paint0_linear_22_378)"/>
<path d="M26.7826 44.625C26.7826 48.1458 23.9211 51 20.3913 51C16.8615 51 14 48.1458 14 44.625C14 41.1042 16.8615 38.25 20.3913 38.25C23.9211 38.25 26.7826 41.1042 26.7826 44.625Z" fill="url(#paint1_linear_22_378)"/>
<defs>
<linearGradient id="paint0_linear_22_378" x1="148.846" y1="0" x2="148.846" y2="51" gradientUnits="userSpaceOnUse">
<stop stop-color="#C8AFE9"/>
<stop offset="1" stop-color="#652FAD"/>
</linearGradient>
<linearGradient id="paint1_linear_22_378" x1="20.3913" y1="38.25" x2="20.3913" y2="51" gradientUnits="userSpaceOnUse">
<stop stop-color="#C8AFE9"/>
<stop offset="1" stop-color="#652FAD"/>
</linearGradient>
</defs>
</svg>
