<svg width="48" height="48" viewBox="0 0 48 48" fill="none" xmlns="http://www.w3.org/2000/svg">
<rect width="48" height="48" rx="6" fill="#2F6AAD" fill-opacity="0.25"/>
<g clip-path="url(#clip0_54_130)">
<path d="M33.3334 9.33337H20.0001C18.5334 9.33337 17.3334 10.5334 17.3334 12V16H20.0001V13.3334H33.3334V34.6667H20.0001V32H17.3334V36C17.3334 37.4667 18.5334 38.6667 20.0001 38.6667H33.3334C34.8001 38.6667 36.0001 37.4667 36.0001 36V12C36.0001 10.5334 34.8001 9.33337 33.3334 9.33337ZM17.3468 25.96L13.9468 22.56L12.2534 24.2534L17.3334 29.3334L26.9201 19.7467L25.2268 18.0534L17.3468 25.96Z" fill="#2F6AAD"/>
</g>
<defs>
<clipPath id="clip0_54_130">
<rect width="32" height="32" fill="white" transform="translate(8 8)"/>
</clipPath>
</defs>
</svg>
