<svg width="48" height="48" viewBox="0 0 48 48" fill="none" xmlns="http://www.w3.org/2000/svg">
<rect width="47.8803" height="48" rx="6" fill="#652FAD" fill-opacity="0.25"/>
<g clip-path="url(#clip0_54_122)">
<path d="M35.9103 21.4933H26.8929L30.5371 17.7333C26.9062 14.1333 21.0275 14 17.3966 17.6C13.7657 21.2133 13.7657 27.04 17.3966 30.6533C21.0275 34.2667 26.9062 34.2667 30.5371 30.6533C32.3459 28.8667 33.2503 26.7733 33.2503 24.1333H35.9103C35.9103 26.7733 34.7399 30.2 32.3991 32.52C27.7308 37.16 20.1497 37.16 15.4814 32.52C10.8264 27.8933 10.7865 20.3733 15.4548 15.7467C20.1231 11.12 27.6111 11.12 32.2794 15.7467L35.9103 12V21.4933ZM24.6053 18.6667V24.3333L29.2603 27.1067L28.3027 28.72L22.6103 25.3333V18.6667H24.6053Z" fill="#652FAD"/>
</g>
<defs>
<clipPath id="clip0_54_122">
<rect width="31.9202" height="32" fill="white" transform="translate(7.9801 8)"/>
</clipPath>
</defs>
</svg>
