<svg width="48" height="48" viewBox="0 0 48 48" fill="none" xmlns="http://www.w3.org/2000/svg">
<rect width="48" height="48" rx="6" fill="#ADA82F" fill-opacity="0.25"/>
<g clip-path="url(#clip0_54_159)">
<path d="M34.6667 32C36.1333 32 37.32 30.8 37.32 29.3334L37.3333 16C37.3333 14.52 36.1333 13.3334 34.6667 13.3334H13.3333C11.8533 13.3334 10.6667 14.52 10.6667 16V29.3334C10.6667 30.8 11.8533 32 13.3333 32H8V34.6667H40V32H34.6667ZM13.3333 29.3334V16H34.6667V29.3334V29.3467L13.3333 29.3334ZM20.1289 21.2708C20.1289 19.9015 21.2436 18.7855 22.6143 18.7855C23.9836 18.7855 25.0996 19.9015 25.0996 21.2708C25.0996 22.6402 23.9836 23.7562 22.6143 23.7562C21.2436 23.7562 20.1289 22.6402 20.1289 21.2708ZM29.5049 26.9188L26.1956 23.6095C26.6369 22.9362 26.8983 22.1335 26.8983 21.2708C26.8983 18.9082 24.9769 16.9868 22.6143 16.9868C20.2516 16.9868 18.3289 18.9082 18.3289 21.2708C18.3289 23.6335 20.2516 25.5562 22.6143 25.5562C23.4623 25.5562 24.2476 25.3002 24.9129 24.8748L28.2316 28.1922L29.5049 26.9188Z" fill="#ADA82F"/>
</g>
<defs>
<clipPath id="clip0_54_159">
<rect width="32" height="32" fill="white" transform="translate(8 8)"/>
</clipPath>
</defs>
</svg>
