<svg width="72" height="72" viewBox="0 0 72 72" fill="none" xmlns="http://www.w3.org/2000/svg">
<circle cx="36" cy="36" r="35" fill="#652FAD" fill-opacity="0.25" stroke="#652FAD" stroke-width="2"/>
<path d="M27.693 47V43.48L37.165 34.104C37.5277 33.7627 37.8157 33.432 38.029 33.112C38.2423 32.7707 38.4023 32.4293 38.509 32.088C38.6157 31.7467 38.669 31.4053 38.669 31.064C38.669 30.3387 38.349 29.7413 37.709 29.272C37.0903 28.7813 36.3117 28.536 35.373 28.536C34.3703 28.536 33.4317 28.7493 32.557 29.176C31.6823 29.5813 30.733 30.2853 29.709 31.288L26.957 27.928C28.237 26.712 29.5917 25.7947 31.021 25.176C32.4717 24.5573 33.9757 24.248 35.533 24.248C37.133 24.248 38.5197 24.5253 39.693 25.08C40.8877 25.6133 41.8157 26.3707 42.477 27.352C43.1383 28.312 43.469 29.4427 43.469 30.744C43.469 31.448 43.3623 32.1307 43.149 32.792C42.957 33.432 42.6477 34.0613 42.221 34.68C41.7943 35.2987 41.2397 35.9387 40.557 36.6L34.093 42.84L43.789 42.808V47H27.693Z" fill="#652FAD"/>
</svg>
