<svg width="48" height="48" viewBox="0 0 48 48" fill="none" xmlns="http://www.w3.org/2000/svg">
<rect width="48" height="48" rx="6" fill="#AD2F7D" fill-opacity="0.25"/>
<g clip-path="url(#clip0_54_141)">
<path d="M35.3333 16C31.8533 16.9333 27.7733 17.3333 24 17.3333C20.2267 17.3333 16.1467 16.9333 12.6667 16L12 18.6666C14.48 19.3333 17.3333 19.7733 20 20V37.3333H22.6667V29.3333H25.3333V37.3333H28V20C30.6667 19.7733 33.52 19.3333 36 18.6666L35.3333 16ZM24 16C25.4667 16 26.6667 14.8 26.6667 13.3333C26.6667 11.8666 25.4667 10.6666 24 10.6666C22.5333 10.6666 21.3333 11.8666 21.3333 13.3333C21.3333 14.8 22.5333 16 24 16Z" fill="#AD2F7D"/>
</g>
<defs>
<clipPath id="clip0_54_141">
<rect width="32" height="32" fill="white" transform="translate(8 8)"/>
</clipPath>
</defs>
</svg>
